<?xml version="1.0" standalone="no"?>
<!DOCTYPE svg PUBLIC "-//W3C//DTD SVG 20010904//EN"
 "http://www.w3.org/TR/2001/REC-SVG-20010904/DTD/svg10.dtd">
<svg version="1.0" xmlns="http://www.w3.org/2000/svg"
 width="350.000000pt" height="291.000000pt" viewBox="0 0 350.000000 291.000000"
 preserveAspectRatio="xMidYMid meet">

<g transform="translate(0.000000,291.000000) scale(0.100000,-0.100000)"
fill="#000000" stroke="none">
<path d="M0 1455 l0 -1455 1750 0 1750 0 0 1455 0 1455 -1750 0 -1750 0 0
-1455z m1770 1270 c17 -40 23 -45 52 -45 55 0 62 -12 27 -46 -28 -27 -30 -33
-25 -77 l7 -47 -45 21 -44 22 -37 -22 c-21 -12 -39 -21 -40 -19 -2 2 0 22 5
46 7 39 5 45 -22 71 -34 33 -30 51 12 51 33 0 52 16 70 59 7 17 14 31 17 31 2
0 12 -20 23 -45z m-248 -122 c28 -5 28 -6 11 -25 -10 -11 -16 -31 -15 -44 3
-22 2 -23 -21 -13 -18 8 -30 8 -47 -1 -20 -11 -21 -10 -18 13 1 14 -5 34 -16
46 -19 21 -19 21 2 21 12 0 29 11 39 24 17 24 18 24 27 5 5 -11 22 -23 38 -26z
m554 -3 c16 0 16 -1 1 -18 -10 -10 -17 -31 -17 -45 0 -24 -2 -26 -19 -15 -15
9 -25 9 -46 0 -24 -11 -26 -11 -20 8 4 12 0 31 -9 45 -14 22 -14 23 9 29 13 3
27 15 30 27 7 20 7 19 30 -5 13 -15 32 -26 41 -26z m904 -330 l0 -60 -1235 0
-1235 0 0 60 0 60 1235 0 1235 0 0 -60z m-1703 -215 c116 -35 158 -160 89
-265 l-25 -38 48 -76 c27 -41 51 -73 55 -69 3 3 6 107 6 230 l0 223 90 0 90 0
0 -245 0 -245 -195 0 -195 0 -37 75 c-21 41 -41 75 -46 75 -5 0 -7 -33 -6 -72
l2 -73 -91 -3 -92 -3 0 245 c0 186 3 246 13 249 30 13 245 6 294 -8z m1169 -4
c83 -38 124 -119 124 -243 -1 -101 -54 -193 -135 -229 -65 -30 -189 -22 -239
14 -18 13 -18 16 7 71 24 51 28 56 46 47 41 -22 123 -6 136 26 4 12 1 13 -12
7 -10 -4 -38 -9 -63 -11 -177 -15 -222 248 -55 323 44 19 142 17 191 -5z
m-585 -3 c0 -7 0 -47 -1 -88 -2 -89 5 -86 50 23 l33 77 108 0 107 0 -54 -101
c-30 -55 -60 -111 -66 -124 -11 -24 -9 -28 114 -232 l20 -33 -106 0 -106 0
-47 93 -48 92 -3 -92 -3 -93 -89 0 -90 0 0 245 0 245 90 0 c65 0 90 -3 91 -12z
m-744 -603 c76 -38 78 -43 38 -103 l-35 -51 -44 20 c-42 18 -76 17 -76 -2 0
-5 28 -22 63 -38 34 -15 75 -42 90 -59 30 -31 45 -91 34 -134 -10 -38 -73 -94
-123 -108 -91 -26 -227 2 -276 57 -16 17 -15 21 14 68 17 28 32 51 33 53 1 2
18 -6 36 -17 31 -18 63 -25 97 -22 28 2 8 23 -50 51 -78 38 -93 52 -114 105
-28 74 9 148 91 186 61 28 158 25 222 -6z m984 10 c225 -77 225 -403 0 -480
-64 -22 -166 -19 -221 6 -216 97 -207 392 14 476 45 17 155 16 207 -2z m560
-17 c61 -36 83 -81 77 -159 -7 -99 -67 -150 -185 -157 l-63 -4 0 -74 0 -74
-95 0 -95 0 0 244 c0 186 3 246 13 250 6 3 77 4 157 3 138 -2 147 -3 191 -29z
m-1265 -63 l1 -80 52 -3 51 -3 0 85 0 86 95 0 95 0 0 -245 0 -245 -95 0 -95 0
0 86 0 85 -51 -3 -52 -3 -1 -80 -1 -80 -92 -3 -93 -3 0 246 0 246 93 -3 92 -3
1 -80z m1584 -625 l0 -60 -1232 2 -1233 3 -3 44 c-2 24 -1 50 2 57 5 12 196
14 1236 14 l1230 0 0 -60z m-1470 -277 c0 -12 7 -28 15 -36 16 -17 10 -27 -18
-27 -10 0 -21 -9 -24 -20 -3 -11 -8 -20 -12 -20 -3 0 -12 9 -19 20 -7 11 -21
20 -32 20 -24 0 -26 13 -5 30 9 7 13 21 9 34 -4 19 -1 21 41 21 40 0 45 -3 45
-22z m196 7 l36 -21 33 21 c18 11 36 20 40 20 4 0 4 -19 1 -43 -6 -39 -4 -46
24 -72 36 -34 38 -45 8 -45 -48 0 -68 -13 -85 -51 -9 -21 -20 -39 -23 -39 -3
0 -14 18 -23 39 -16 36 -21 40 -68 46 l-51 7 35 37 c30 32 34 41 29 79 -2 23
-2 42 2 42 3 0 22 -9 42 -20z m348 -6 c-3 -12 1 -26 10 -33 23 -19 20 -31 -8
-31 -16 0 -27 -7 -31 -20 -8 -25 -22 -26 -30 -1 -3 10 -17 22 -31 25 -24 7
-25 8 -10 25 9 10 16 26 16 37 0 16 7 19 45 19 40 0 44 -2 39 -21z"/>
<path d="M1156 1915 c-11 -31 -7 -55 12 -55 28 0 44 16 40 41 -4 29 -42 39
-52 14z"/>
<path d="M2320 1915 c-12 -33 3 -65 30 -65 13 0 22 9 26 27 13 52 -38 86 -56
38z"/>
<path d="M1964 1288 c-24 -11 -44 -48 -44 -79 0 -27 53 -79 80 -79 34 0 70 44
70 85 0 25 -8 44 -25 60 -26 27 -47 30 -81 13z"/>
<path d="M2490 1295 c0 -31 3 -35 25 -35 31 0 52 34 34 56 -6 8 -22 14 -35 14
-21 0 -24 -5 -24 -35z"/>
</g>
</svg>
